<?xml version="1.0" encoding="UTF-8"?>
<svg width="16px" height="16px" viewBox="0 0 16 16" version="1.1" xmlns="http://www.w3.org/2000/svg" xmlns:xlink="http://www.w3.org/1999/xlink">
    <title>形状结合</title>
    <g id="中后台" stroke="none" stroke-width="1" fill="none" fill-rule="evenodd">
        <g id="面板" transform="translate(-2833.000000, -1279.000000)" fill="#232321">
            <g id="编组-8备份-2" transform="translate(2587.000000, 65.000000)">
                <g id="编组-24" transform="translate(38.000000, 1172.000000)">
                    <g id="编组-17" transform="translate(0.000000, 30.000000)">
                        <g id="复制" transform="translate(208.000000, 12.000000)">
                            <path d="M10.2857143,4 C11.2324881,4 12,4.76751186 12,5.71428571 L12,14.2857143 C12,15.2324881 11.2324881,16 10.2857143,16 L1.71428571,16 C0.767511857,16 0,15.2324881 0,14.2857143 L0,5.71428571 C0,4.76751186 0.767511857,4 1.71428571,4 L10.2857143,4 Z M10.1666667,5 L1.83333333,5 C1.37309604,5 1,5.37309604 1,5.83333333 L1,14.1666667 C1,14.626904 1.37309604,15 1.83333333,15 L10.1666667,15 C10.626904,15 11,14.626904 11,14.1666667 L11,5.83333333 C11,5.37309604 10.626904,5 10.1666667,5 Z M6,7.42857143 C6.23669346,7.42857143 6.42857143,7.62044939 6.42857143,7.85714286 L6.42757143,9.57057143 L8.14285714,9.57142857 C8.37955061,9.57142857 8.57142857,9.76330654 8.57142857,10 C8.57142857,10.2366935 8.37955061,10.4285714 8.14285714,10.4285714 L6.42757143,10.4285714 L6.42857143,12.1428571 C6.42857143,12.3795506 6.23669346,12.5714286 6,12.5714286 C5.76330654,12.5714286 5.57142857,12.3795506 5.57142857,12.1428571 L5.57057143,10.4285714 L3.85714286,10.4285714 C3.62044939,10.4285714 3.42857143,10.2366935 3.42857143,10 C3.42857143,9.76330654 3.62044939,9.57142857 3.85714286,9.57142857 L5.57057143,9.57057143 L5.57142857,7.85714286 C5.57142857,7.62044939 5.76330654,7.42857143 6,7.42857143 Z M14.2857143,0 C15.2324881,0 16,0.767511857 16,1.71428571 L16,10.2857143 C16,11.2324881 15.2324881,12 14.2857143,12 L13,12 L13,11 L14.1666667,11 C14.626904,11 15,10.626904 15,10.1666667 L15,1.83333333 C15,1.37309604 14.626904,1 14.1666667,1 L5.83333333,1 C5.37309604,1 5,1.37309604 5,1.83333333 L5,3 L4,3 L4,1.71428571 C4,0.767511857 4.76751186,0 5.71428571,0 L14.2857143,0 Z" id="形状结合"></path>
                        </g>
                    </g>
                </g>
            </g>
        </g>
    </g>
</svg>