<?xml version="1.0" encoding="UTF-8"?>
<svg width="16px" height="16px" viewBox="0 0 16 16" version="1.1" xmlns="http://www.w3.org/2000/svg" xmlns:xlink="http://www.w3.org/1999/xlink">
    <title>形状结合</title>
    <g id="中后台" stroke="none" stroke-width="1" fill="none" fill-rule="evenodd">
        <g id="面板" transform="translate(-2865.000000, -1489.000000)" fill="#232321">
            <g id="编组-8备份-2" transform="translate(2587.000000, 65.000000)">
                <g id="编组-24" transform="translate(38.000000, 1172.000000)">
                    <g id="编组-7" transform="translate(0.000000, 240.000000)">
                        <path d="M255.5,14 C255.776142,14 256,14.2238576 256,14.5 C256,14.7454599 255.823125,14.9496084 255.589876,14.9919443 L255.5,15 L254,15 L254,25.6 C254,26.9254834 252.925483,28 251.6,28 L244.4,28 C243.074517,28 242,26.9254834 242,25.6 L242,15 L240.5,15 C240.223858,15 240,14.7761424 240,14.5 C240,14.2545401 240.176875,14.0503916 240.410124,14.0080557 L240.5,14 L255.5,14 Z M253,15 L243,15 L243,25.6 C243,26.3277164 243.555229,26.9257521 244.265171,26.9935912 L244.4,27 L251.6,27 C252.327716,27 252.925752,26.4447711 252.993591,25.7348293 L253,25.6 L253,15 Z M246,18 C246.24546,18 246.449608,18.1768752 246.491944,18.4101244 L246.5,18.5 L246.5,23.5 C246.5,23.7761424 246.276142,24 246,24 C245.75454,24 245.550392,23.8231248 245.508056,23.5898756 L245.5,23.5 L245.5,18.5 C245.5,18.2238576 245.723858,18 246,18 Z M250,18 C250.24546,18 250.449608,18.1768752 250.491944,18.4101244 L250.5,18.5 L250.5,23.5 C250.5,23.7761424 250.276142,24 250,24 C249.75454,24 249.550392,23.8231248 249.508056,23.5898756 L249.5,23.5 L249.5,18.5 C249.5,18.2238576 249.723858,18 250,18 Z M250.5,12 C250.776142,12 251,12.2238576 251,12.5 C251,12.7454599 250.823125,12.9496084 250.589876,12.9919443 L250.5,13 L245.5,13 C245.223858,13 245,12.7761424 245,12.5 C245,12.2545401 245.176875,12.0503916 245.410124,12.0080557 L245.5,12 L250.5,12 Z" id="形状结合"></path>
                    </g>
                </g>
            </g>
        </g>
    </g>
</svg>