<?xml version="1.0" encoding="UTF-8"?>
<svg width="256" height="132" xmlns="http://www.w3.org/2000/svg"><g fill="none" fill-rule="evenodd"><rect fill="#EEF3FE" width="256" height="132" rx="4"/><path d="M1.58.814 128 66 1.58 131.186A3.994 3.994 0 0 1 0 128V4C0 2.7.62 1.545 1.58.814ZM256 4v124c0 1.3-.62 2.454-1.58 3.185L128 66 254.42.814C255.38 1.544 256 2.7 256 4Z" fill="#E3EEFF"/><path d="M211 23v86H44V23h167Zm-12 6H56v74h143V29Z" fill="#FFF"/><path fill="#FFF" d="M111 57h34v18h-34z"/></g></svg>