<?xml version="1.0" standalone="no"?><!DOCTYPE svg PUBLIC "-//W3C//DTD SVG 1.1//EN" "http://www.w3.org/Graphics/SVG/1.1/DTD/svg11.dtd"><svg t="1619416197029" class="icon" viewBox="0 0 1024 1024" version="1.1" xmlns="http://www.w3.org/2000/svg" p-id="6447" xmlns:xlink="http://www.w3.org/1999/xlink" width="128" height="128"><defs><style type="text/css"></style></defs><path d="M588.45 739.58c6.15 0 12.25-0.18 18.31-0.55-2.93 3.3-5.99 6.54-9.16 9.71L484.43 861.92c-88.4 88.4-231.73 88.4-320.12 0-88.4-88.4-88.4-231.72 0-320.12l113.18-113.18c3.17-3.16 6.4-6.22 9.7-9.16 69.38-61.76 167.64-73.45 247.95-35.09 22.58 10.79 43.77 25.54 62.47 44.25 18.72 18.71 33.45 39.88 44.25 62.47-13.65 13.68-32.55 22.14-53.4 22.14-7.7 0-15.14-1.15-22.14-3.3-6.1-9.95-13.45-19.34-22.05-27.95a152.148 152.148 0 0 0-27.96-22.06c-58.12-35.62-135.14-28.27-185.46 22.06l-33.97 33.98-79.21 79.2c-58.93 58.93-58.93 154.48 0 213.43 58.94 58.93 154.49 58.93 213.42 0l79.2-79.21c24.92 6.65 51.14 10.2 78.16 10.2z m273.24-575.06c-88.4-88.39-231.72-88.39-320.12 0L428.39 277.7c-3.17 3.17-6.22 6.4-9.16 9.71 6.06-0.37 12.16-0.55 18.31-0.55 27.03 0 53.24 3.56 78.17 10.22l79.2-79.2c58.95-58.94 154.5-58.94 213.43 0 58.93 58.93 58.93 154.48 0 213.42l-79.21 79.2-33.97 33.98c-50.33 50.31-127.35 57.66-185.47 22.05-9.95-6.1-19.33-13.45-27.95-22.05a151.664 151.664 0 0 1-22.05-27.96c-7-2.15-14.44-3.31-22.14-3.31-20.86 0-39.74 8.46-53.4 22.15 10.79 22.58 25.54 43.75 44.25 62.47 18.71 18.7 39.87 33.45 62.46 44.25 80.32 38.37 178.58 26.67 247.95-35.09 3.32-2.95 6.54-5.99 9.71-9.16L861.7 484.65c88.4-88.41 88.4-231.72-0.01-320.13z" fill="#040000" p-id="6448"></path></svg>